<svg width="808" height="90" viewBox="0 0 808 90" fill="none" xmlns="http://www.w3.org/2000/svg">
<path opacity="0.5" d="M239.935 56.3123L239.282 54.9622L239.935 56.3123ZM552.371 56.3123L551.535 57.5579L552.371 56.3123ZM7.27484 14.8076C7.83556 15.4174 8.78447 15.4572 9.3943 14.8965C10.0041 14.3357 10.0439 13.3868 9.48321 12.777L7.27484 14.8076ZM19.2627 23.0765C18.6802 22.4874 17.7305 22.482 17.1414 23.0645C16.5523 23.647 16.547 24.5967 17.1294 25.1858L19.2627 23.0765ZM31.0065 38.2669C31.6307 38.8115 32.5782 38.747 33.1229 38.1228C33.6675 37.4986 33.603 36.551 32.9788 36.0064L31.0065 38.2669ZM43.9192 44.9437C43.2603 44.4416 42.3191 44.5687 41.817 45.2277C41.3149 45.8866 41.442 46.8278 42.1009 47.3299L43.9192 44.9437ZM57.8747 58.171C58.5804 58.6048 59.5042 58.3843 59.938 57.6785C60.3718 56.9728 60.1514 56.049 59.4456 55.6152L57.8747 58.171ZM71.7468 62.5039C71.0078 62.1295 70.1052 62.4251 69.7309 63.1641C69.3565 63.9031 69.652 64.8057 70.3911 65.1801L71.7468 62.5039ZM87.9271 72.8232C88.7047 73.1089 89.5667 72.71 89.8523 71.9324C90.1379 71.1548 89.7391 70.2928 88.9615 70.0072L87.9271 72.8232ZM102.412 74.2654C101.612 74.0517 100.79 74.5273 100.576 75.3277C100.362 76.1281 100.838 76.9501 101.638 77.1638L102.412 74.2654ZM120.392 80.9645C121.212 81.0795 121.971 80.5077 122.086 79.6872C122.201 78.8668 121.629 78.1085 120.808 77.9935L120.392 80.9645ZM134.82 79.3235C133.992 79.2817 133.288 79.9185 133.246 80.7458C133.204 81.5732 133.841 82.2778 134.668 82.3197L134.82 79.3235ZM153.791 82.2029C154.618 82.1522 155.247 81.4407 155.196 80.6139C155.146 79.787 154.434 79.1578 153.607 79.2086L153.791 82.2029ZM167.681 77.7873C166.861 77.9021 166.289 78.6602 166.404 79.4806C166.518 80.3011 167.277 80.8731 168.097 80.7584L167.681 77.7873ZM186.829 77.2211C187.635 77.0302 188.134 76.222 187.943 75.4158C187.753 74.6097 186.944 74.1109 186.138 74.3017L186.829 77.2211ZM199.798 70.602C199.005 70.8433 198.559 71.6813 198.8 72.4738C199.041 73.2663 199.879 73.7132 200.672 73.4719L199.798 70.602ZM218.684 67.2271C219.456 66.9273 219.839 66.0582 219.539 65.2859C219.239 64.5137 218.37 64.1306 217.598 64.4304L218.684 67.2271ZM230.65 58.9796C229.894 59.3175 229.555 60.2045 229.892 60.9609C230.23 61.7173 231.117 62.0566 231.874 61.7188L230.65 58.9796ZM249.23 53.4914C249.976 53.1323 250.29 52.2359 249.931 51.4894C249.572 50.7429 248.676 50.4289 247.929 50.788L249.23 53.4914ZM260.86 44.6104C260.111 44.9651 259.792 45.8595 260.147 46.6082C260.501 47.3569 261.396 47.6763 262.144 47.3216L260.86 44.6104ZM279.489 39.2352C280.242 38.8907 280.573 38.0006 280.229 37.2473C279.884 36.4939 278.994 36.1625 278.241 36.507L279.489 39.2352ZM291.331 30.6337C290.572 30.9668 290.228 31.8517 290.561 32.6102C290.894 33.3687 291.779 33.7136 292.537 33.3805L291.331 30.6337ZM310.123 25.9393C310.891 25.6281 311.261 24.7535 310.95 23.9857C310.639 23.218 309.764 22.8478 308.996 23.1589L310.123 25.9393ZM322.376 17.9538C321.599 18.2424 321.204 19.1059 321.492 19.8824C321.781 20.6589 322.644 21.0545 323.421 20.7659L322.376 17.9538ZM341.434 14.5674C342.225 14.3191 342.664 13.4771 342.416 12.6868C342.167 11.8964 341.325 11.4571 340.535 11.7054L341.434 14.5674ZM354.406 7.70605C353.604 7.91535 353.124 8.73481 353.333 9.53636C353.543 10.3379 354.362 10.818 355.164 10.6087L354.406 7.70605ZM373.713 6.52284C374.529 6.37828 375.073 5.59982 374.929 4.7841C374.784 3.96839 374.006 3.42431 373.19 3.56887L373.713 6.52284ZM387.485 1.5409C386.661 1.62785 386.063 2.36619 386.15 3.19004C386.237 4.0139 386.976 4.61128 387.799 4.52433L387.485 1.5409ZM406.728 3.50021C407.557 3.49894 408.227 2.82633 408.226 1.99791C408.225 1.16948 407.552 0.49894 406.724 0.500213L406.728 3.50021ZM421.179 1.06299C420.353 0.997246 419.631 1.6134 419.565 2.43922C419.499 3.26503 420.115 3.98778 420.941 4.05353L421.179 1.06299ZM439.734 6.56073C440.549 6.7129 441.332 6.17611 441.484 5.36178C441.637 4.54745 441.1 3.76394 440.285 3.61177L439.734 6.56073ZM454.355 6.78368C453.554 6.57257 452.734 7.05084 452.523 7.85192C452.311 8.65299 452.79 9.47353 453.591 9.68464L454.355 6.78368ZM471.714 15.329C472.494 15.6084 473.352 15.2025 473.632 14.4226C473.911 13.6427 473.505 12.784 472.725 12.5047L471.714 15.329ZM486.179 17.7606C485.416 17.4382 484.536 17.7955 484.214 18.5586C483.891 19.3218 484.249 20.2018 485.012 20.5241L486.179 17.7606ZM502.264 28.4805C503.005 28.8501 503.906 28.5487 504.275 27.8073C504.645 27.0659 504.344 26.1653 503.602 25.7957L502.264 28.4805ZM516.368 32.4875C515.642 32.0887 514.73 32.3542 514.331 33.0803C513.933 33.8065 514.198 34.7184 514.924 35.1171L516.368 32.4875ZM531.413 44.6693C532.121 45.0998 533.044 44.8751 533.474 44.1673C533.905 43.4596 533.68 42.5368 532.972 42.1063L531.413 44.6693ZM545.144 49.7514C544.449 49.3013 543.52 49.5001 543.07 50.1956C542.62 50.8911 542.819 51.8198 543.514 52.2699L545.144 49.7514ZM560.245 63.184C560.949 63.6207 561.873 63.4041 562.31 62.7001C562.747 61.9961 562.53 61.0714 561.826 60.6347L560.245 63.184ZM574.933 68.227C574.203 67.8351 573.293 68.1091 572.901 68.839C572.51 69.5689 572.784 70.4782 573.513 70.8701L574.933 68.227ZM592.051 79.6404C592.819 79.9523 593.694 79.583 594.006 78.8156C594.318 78.0481 593.949 77.1731 593.181 76.8612L592.051 79.6404ZM607.431 81.8494C606.636 81.6175 605.803 82.0742 605.571 82.8695C605.339 83.6648 605.796 84.4975 606.591 84.7295L607.431 81.8494ZM626.748 88.8437C627.571 88.9364 628.313 88.3443 628.406 87.5211C628.499 86.6979 627.907 85.9553 627.084 85.8625L626.748 88.8437ZM642.08 86.4239C641.253 86.4571 640.608 87.155 640.642 87.9828C640.675 88.8105 641.373 89.4547 642.2 89.4215L642.08 86.4239ZM662.604 86.3983C663.406 86.1907 663.888 85.3723 663.68 84.5703C663.472 83.7683 662.654 83.2864 661.852 83.494L662.604 86.3983ZM676.084 78.6565C675.32 78.9777 674.962 79.8571 675.283 80.6207C675.604 81.3843 676.484 81.743 677.247 81.4218L676.084 78.6565ZM695.509 71.9754C696.217 71.5444 696.441 70.6215 696.01 69.914C695.579 69.2065 694.656 68.9824 693.948 69.4134L695.509 71.9754ZM706.57 61.0226C705.896 61.5044 705.741 62.4413 706.223 63.1152C706.704 63.7891 707.641 63.9448 708.315 63.463L706.57 61.0226ZM724.588 51.1034C725.237 50.5894 725.347 49.6461 724.833 48.9963C724.32 48.3466 723.376 48.2365 722.727 48.7504L724.588 51.1034ZM734.681 39.2443C734.031 39.7581 733.921 40.7014 734.435 41.3513C734.949 42.0011 735.892 42.1113 736.542 41.5975L734.681 39.2443ZM752.708 29.3624C753.384 28.884 753.544 27.9479 753.066 27.2716C752.587 26.5953 751.651 26.435 750.975 26.9134L752.708 29.3624ZM763.89 18.5295C763.174 18.9471 762.933 19.8657 763.35 20.5812C763.768 21.2966 764.687 21.5381 765.402 21.1205L763.89 18.5295ZM783.536 12.5895C784.318 12.3164 784.73 11.4609 784.457 10.6788C784.184 9.89673 783.329 9.48414 782.547 9.75729L783.536 12.5895ZM797.624 6.05194C796.803 6.16811 796.233 6.92723 796.349 7.74747C796.465 8.56771 797.224 9.13847 798.044 9.0223L797.624 6.05194ZM0.897202 7.83723C2.80207 9.90324 4.88259 12.2058 7.27484 14.8076L9.48321 12.777C7.14555 10.2346 4.97821 7.83774 3.1028 5.80367L0.897202 7.83723ZM17.1294 25.1858C21.2623 29.3655 25.8817 33.7954 31.0065 38.2669L32.9788 36.0064C27.9204 31.5928 23.355 27.2152 19.2627 23.0765L17.1294 25.1858ZM42.1009 47.3299C46.9883 51.0541 52.2423 54.7091 57.8747 58.171L59.4456 55.6152C53.9066 52.2106 48.7349 48.6133 43.9192 44.9437L42.1009 47.3299ZM70.3911 65.1801C75.9233 67.9828 81.766 70.5602 87.9271 72.8232L88.9615 70.0072C82.9163 67.7867 77.1809 65.2568 71.7468 62.5039L70.3911 65.1801ZM101.638 77.1638C107.624 78.7619 113.873 80.0506 120.392 80.9645L120.808 77.9935C114.413 77.097 108.283 75.8328 102.412 74.2654L101.638 77.1638ZM134.668 82.3197C140.825 82.6312 147.198 82.6076 153.791 82.2029L153.607 79.2086C147.125 79.6064 140.864 79.6294 134.82 79.3235L134.668 82.3197ZM168.097 80.7584C174.169 79.9091 180.412 78.7403 186.829 77.2211L186.138 74.3017C179.81 75.7999 173.658 76.9512 167.681 77.7873L168.097 80.7584ZM200.672 73.4719C206.539 71.6858 212.542 69.6112 218.684 67.2271L217.598 64.4304C211.524 66.7883 205.591 68.8382 199.798 70.602L200.672 73.4719ZM231.874 61.7188C234.75 60.4341 237.655 59.0827 240.589 57.6625L239.282 54.9622C236.375 56.3692 233.498 57.7077 230.65 58.9796L231.874 61.7188ZM240.589 57.6625C243.502 56.2523 246.382 54.8617 249.23 53.4914L247.929 50.788C245.078 52.1595 242.196 53.5513 239.282 54.9622L240.589 57.6625ZM262.144 47.3216C268.055 44.5213 273.831 41.8226 279.489 39.2352L278.241 36.507C272.569 39.1012 266.78 41.8058 260.86 44.6104L262.144 47.3216ZM292.537 33.3805C298.519 30.7536 304.374 28.269 310.123 25.9393L308.996 23.1589C303.217 25.501 297.335 27.9971 291.331 30.6337L292.537 33.3805ZM323.421 20.7659C329.524 18.4977 335.52 16.4261 341.434 14.5674L340.535 11.7054C334.565 13.5813 328.521 15.67 322.376 17.9538L323.421 20.7659ZM355.164 10.6087C361.405 8.97902 367.577 7.61036 373.713 6.52284L373.19 3.56887C366.968 4.67155 360.717 6.05794 354.406 7.70605L355.164 10.6087ZM387.799 4.52433C394.106 3.85883 400.403 3.50993 406.728 3.50021L406.724 0.500213C400.29 0.510101 393.89 0.864958 387.485 1.5409L387.799 4.52433ZM420.941 4.05353C427.139 4.54692 433.392 5.37552 439.734 6.56073L440.285 3.61177C433.841 2.40745 427.483 1.56484 421.179 1.06299L420.941 4.05353ZM453.591 9.68464C459.526 11.2488 465.559 13.1247 471.714 15.329L472.725 12.5047C466.493 10.2727 460.378 8.3709 454.355 6.78368L453.591 9.68464ZM485.012 20.5241C490.645 22.9037 496.39 25.5519 502.264 28.4805L503.602 25.7957C497.676 22.8408 491.874 20.1661 486.179 17.7606L485.012 20.5241ZM514.924 35.1171C520.305 38.0715 525.797 41.2528 531.413 44.6693L532.972 42.1063C527.32 38.6683 521.79 35.4646 516.368 32.4875L514.924 35.1171ZM543.514 52.2699C546.16 53.9822 548.833 55.7446 551.535 57.5579L553.207 55.0668C550.491 53.2446 547.804 51.473 545.144 49.7514L543.514 52.2699ZM551.535 57.5579C554.484 59.537 557.387 61.4112 560.245 63.184L561.826 60.6347C559 58.8815 556.127 57.0267 553.207 55.0668L551.535 57.5579ZM573.513 70.8701C579.922 74.311 586.095 77.2195 592.051 79.6404L593.181 76.8612C587.331 74.4835 581.255 71.6215 574.933 68.227L573.513 70.8701ZM606.591 84.7295C613.614 86.7775 620.321 88.1193 626.748 88.8437L627.084 85.8625C620.837 85.1585 614.299 83.8522 607.431 81.8494L606.591 84.7295ZM642.2 89.4215C649.349 89.135 656.129 88.0741 662.604 86.3983L661.852 83.494C655.574 85.1189 649.005 86.1464 642.08 86.4239L642.2 89.4215ZM677.247 81.4218C683.6 78.7497 689.662 75.5374 695.509 71.9754L693.948 69.4134C688.203 72.9135 682.274 76.0528 676.084 78.6565L677.247 81.4218ZM708.315 63.463C713.867 59.4934 719.269 55.3103 724.588 51.1034L722.727 48.7504C717.421 52.947 712.063 57.0951 706.57 61.0226L708.315 63.463ZM736.542 41.5975C741.93 37.3368 747.289 33.1965 752.708 29.3624L750.975 26.9134C745.49 30.794 740.083 34.9732 734.681 39.2443L736.542 41.5975ZM765.402 21.1205C771.29 17.684 777.301 14.767 783.536 12.5895L782.547 9.75729C776.092 12.0114 769.905 15.0186 763.89 18.5295L765.402 21.1205ZM798.044 9.0223C801.285 8.56332 804.6 8.32045 808 8.32045V5.32045C804.456 5.32045 801.001 5.57364 797.624 6.05194L798.044 9.0223Z" fill="#E5DFFB"/>
</svg>
