<svg width="50" height="44" viewBox="0 0 50 44" fill="none" xmlns="http://www.w3.org/2000/svg">
<path d="M25.9037 36.5359C24.4498 36.5135 23.0481 35.9909 21.9345 35.0559L14.6019 28.5978C13.448 27.5196 11.6836 27.4343 10.4309 28.396L0.0038106 36.0649V41.043C-0.0711297 42.3784 0.950866 43.5217 2.28627 43.5967C2.35503 43.6005 2.42405 43.6014 2.49294 43.5994H39.4254C40.9054 43.5994 42.3854 42.523 42.3854 41.043V27.9923L29.1327 35.6614C28.1585 36.247 27.0404 36.5498 25.9037 36.5359Z" fill="#4141A5"/>
<path d="M25.3656 23.485C27.0004 23.485 28.3256 22.1597 28.3256 20.525C28.3256 18.8902 27.0004 17.5649 25.3656 17.5649C23.7308 17.5649 22.4056 18.8902 22.4056 20.525C22.4056 22.1597 23.7308 23.485 25.3656 23.485Z" fill="#4141A5"/>
<path d="M49.3818 5.65795C48.9523 5.07285 48.2889 4.70433 47.5654 4.64883L10.902 0.410711C10.1872 0.350836 9.47385 0.54102 8.88385 0.948942C8.36133 1.4027 8.00607 2.01858 7.87473 2.69806L7.26929 7.9453H39.4255C42.4912 8.01483 44.9702 10.4642 45.0764 13.5289V37.2759C45.0764 37.1414 45.6819 37.0068 45.951 36.7377C46.508 36.3003 46.831 35.6296 46.8255 34.9214L49.9872 7.60884C50.0571 6.90335 49.8387 6.19966 49.3818 5.65795Z" fill="#4141A5"/>
<path d="M39.4252 10.636H2.49276C1.01275 10.636 0.00363159 12.0486 0.00363159 13.5287V32.7013L8.88354 26.2431C11.1377 24.571 14.2561 24.7115 16.3508 26.5795L23.7507 33.0376C24.8666 33.9849 26.4604 34.12 27.7197 33.3739L42.3851 24.8304V13.5287C42.2834 11.9494 41.0064 10.7015 39.4252 10.636ZM25.3653 26.1758C22.2444 26.1758 19.7144 23.6459 19.7144 20.5249C19.7144 17.404 22.2443 14.874 25.3653 14.874C28.4861 14.874 31.0162 17.4039 31.0162 20.5249C31.0162 23.6459 28.4862 26.1758 25.3653 26.1758Z" fill="#4141A5"/>
</svg>
