<svg width="50" height="50" viewBox="0 0 50 50" fill="none" xmlns="http://www.w3.org/2000/svg">
<path d="M40.5272 5.43298L27.4954 14.9011L49.3309 30.7657C49.7678 28.9177 50.0002 26.9917 50.0002 25.0122C50.0002 17.0894 46.2949 10.0166 40.5272 5.43298Z" fill="#4141A5"/>
<path d="M37.9864 3.65706C34.1991 1.34524 29.7522 0.0118408 24.9997 0.0118408C19.8921 0.0118408 15.1382 1.55266 11.176 4.19221L16.156 19.518L37.9864 3.65706Z" fill="#4141A5"/>
<path d="M8.70518 6.06775C3.37842 10.6559 0 17.4467 0 25.0121C0 27.3368 0.320117 29.5879 0.916504 31.7249H17.0424L8.70518 6.06775Z" fill="#4141A5"/>
<path d="M1.93494 34.6542C5.58738 43.3581 14.0282 49.5734 23.9432 49.9878L28.9254 34.6542H1.93494Z" fill="#4141A5"/>
<path d="M27.0436 49.9277C36.8725 49.1288 45.1111 42.6202 48.43 33.7319L35.3853 24.2544L27.0436 49.9277Z" fill="#4141A5"/>
</svg>
