<svg width="50" height="40" viewBox="0 0 50 40" fill="none" xmlns="http://www.w3.org/2000/svg">
<path d="M46.3556 5.76205H33.1205L30.448 1.27225C30.1865 0.833279 29.7135 0.564331 29.2026 0.564331H20.797C20.2862 0.564331 19.813 0.833279 19.5517 1.27225L16.8792 5.76205H12.5361V4.77249C12.5361 3.97215 11.8873 3.32329 11.0869 3.32329H5.72471C4.92421 3.32329 4.27551 3.97215 4.27551 4.77249V5.76205H3.64423C1.63143 5.76205 0 7.39363 0 9.40611V35.791C0 37.8037 1.63142 39.4353 3.64406 39.4353H46.3556C48.3682 39.4353 49.9998 37.8037 49.9998 35.791V9.40611C50 7.39363 48.3682 5.76205 46.3556 5.76205ZM24.9998 32.9714C19.2711 32.9714 14.627 28.3273 14.627 22.5984C14.627 16.8698 19.2711 12.2256 24.9998 12.2256C30.7286 12.2256 35.3727 16.8698 35.3727 22.5984C35.3727 28.3273 30.7286 32.9714 24.9998 32.9714ZM44.082 13.275H39.5409C38.7406 13.275 38.0917 12.6262 38.0917 11.8257C38.0917 11.0252 38.7406 10.3763 39.5409 10.3763H44.082C44.8827 10.3763 45.5313 11.0252 45.5313 11.8257C45.5313 12.6262 44.8825 13.275 44.082 13.275Z" fill="#4141A5"/>
<path d="M24.9997 29.8448C29.0018 29.8448 32.2461 26.6004 32.2461 22.5983C32.2461 18.5962 29.0018 15.3518 24.9997 15.3518C20.9975 15.3518 17.7532 18.5962 17.7532 22.5983C17.7532 26.6004 20.9975 29.8448 24.9997 29.8448Z" fill="#4141A5"/>
</svg>
