<svg width="67" height="18" viewBox="0 0 67 18" fill="none" xmlns="http://www.w3.org/2000/svg">
<path d="M15.7003 0.246575C16.0718 0.246575 16.2575 0.386301 16.2575 0.665754V0.739725C16.2575 0.90411 16.0798 1.16712 15.7245 1.52877C15.3853 1.87397 15.2157 2.23562 15.2157 2.6137V16.7671C15.2157 17.0795 15.1268 17.326 14.9492 17.5069C14.7876 17.6712 14.5615 17.7534 14.2708 17.7534H13.132C12.7767 17.7534 12.4213 17.4986 12.0659 16.989L2.83477 4.38904V15.337C2.83477 15.7315 3.01245 16.1096 3.3678 16.4712C3.73931 16.8329 3.92507 17.0959 3.92507 17.2603V17.3342C3.92507 17.6137 3.73931 17.7534 3.3678 17.7534H0.557262C0.185754 17.7534 0 17.6137 0 17.3342V17.2603C0 17.0959 0.161525 16.8329 0.484576 16.4712C0.807626 16.1096 0.969152 15.7315 0.969152 15.337V2.63836C0.969152 2.24384 0.807626 1.87397 0.484576 1.52877C0.161525 1.18356 0 0.928767 0 0.764384V0.665754C0 0.386301 0.185754 0.246575 0.557262 0.246575H3.58586C4.03813 0.246575 4.41772 0.476712 4.72462 0.936986L13.3501 13.1178V2.6137C13.3501 2.23562 13.1724 1.87397 12.817 1.52877C12.4778 1.16712 12.3082 0.90411 12.3082 0.739725V0.665754C12.3082 0.386301 12.494 0.246575 12.8655 0.246575H15.7003Z" fill="#1A093F"/>
<path d="M26.4325 18C24.0096 18 21.9744 17.137 20.3268 15.411C18.6793 13.6849 17.8555 11.5644 17.8555 9.04932C17.8555 6.3863 18.6389 4.21644 20.2057 2.53973C21.7886 0.846576 23.84 0 26.3598 0C28.7827 0 30.8017 0.879452 32.417 2.63836C34.0322 4.38082 34.8399 6.53425 34.8399 9.09863C34.8399 11.6795 34.0322 13.8082 32.417 15.4849C30.8179 17.1616 28.8231 18 26.4325 18ZM27.4501 16.3973C28.5646 16.3973 29.4611 15.9781 30.1395 15.1397C30.8179 14.3014 31.1571 13.2329 31.1571 11.9342C31.1571 10.3233 30.8906 8.72877 30.3575 7.15069C29.8245 5.55617 29.0815 4.23288 28.1285 3.18082C27.1755 2.12877 26.1498 1.60274 25.0514 1.60274C23.9369 1.60274 23.0485 2.0137 22.3863 2.83562C21.7402 3.65753 21.4171 4.75069 21.4171 6.11507C21.4171 7.79178 21.6756 9.41918 22.1924 10.9973C22.7255 12.5753 23.4604 13.874 24.3973 14.8932C25.3341 15.8959 26.3517 16.3973 27.4501 16.3973Z" fill="#1A093F"/>
<path d="M51.6902 0.246575C52.0618 0.246575 52.2475 0.378082 52.2475 0.641096V0.739725C52.2475 0.920548 52.0698 1.16712 51.7145 1.47945C51.3591 1.79178 51.0926 2.16986 50.9149 2.6137L45.1 16.7178C44.8093 17.4082 44.3247 17.7534 43.6463 17.7534C43.0648 17.7534 42.6287 17.4329 42.3379 16.7918L35.9173 2.63836C35.7396 2.2274 35.4731 1.85753 35.1177 1.52877C34.7785 1.2 34.6089 0.936986 34.6089 0.739725V0.641096C34.6089 0.378082 34.8028 0.246575 35.1904 0.246575H40.6177C40.9892 0.246575 41.1749 0.378082 41.1749 0.641096V0.739725C41.1749 0.871232 41.1023 1.01096 40.9569 1.1589C40.8115 1.29041 40.6661 1.4137 40.5208 1.52877C40.3754 1.64384 40.2543 1.8 40.1573 1.99726C40.0766 2.19452 40.0846 2.40822 40.1816 2.63836L44.6639 13.6356L48.9039 2.6137C49.017 2.31781 48.9847 2.06301 48.807 1.84931C48.6293 1.61918 48.4194 1.4137 48.1771 1.23288C47.9509 1.05205 47.8379 0.887671 47.8379 0.739725V0.641096C47.8379 0.378082 48.0236 0.246575 48.3951 0.246575H51.6902Z" fill="#1A093F"/>
<path d="M65.6674 15.3863C65.8289 15.7808 66.0874 16.1425 66.4427 16.4712C66.8142 16.8 67 17.063 67 17.2603V17.3342C67 17.6137 66.8223 17.7534 66.467 17.7534H61.1609C60.8055 17.7534 60.6278 17.6137 60.6278 17.3342V17.2603C60.6278 17.0959 60.7328 16.9315 60.9428 16.7671C61.1689 16.5863 61.3628 16.389 61.5243 16.1753C61.6858 15.9452 61.71 15.6822 61.597 15.3863L60.8701 13.4137H54.1103L53.4076 15.3863C53.2946 15.6822 53.3188 15.9452 53.4803 16.1753C53.6419 16.389 53.8276 16.5863 54.0376 16.7671C54.2637 16.9315 54.3768 17.0959 54.3768 17.2603V17.3342C54.3768 17.6137 54.191 17.7534 53.8195 17.7534H50.6456C50.2902 17.7534 50.1125 17.6137 50.1125 17.3342V17.2603C50.1125 17.063 50.2902 16.8082 50.6456 16.4959C51.0009 16.1671 51.2594 15.7973 51.4209 15.3863L56.2424 2.7863C56.3716 2.4411 56.2586 2.03836 55.9032 1.57808C55.564 1.11781 55.3944 0.838356 55.3944 0.739725V0.641096C55.3944 0.378082 55.5559 0.246575 55.879 0.246575H58.3988C59.0772 0.246575 59.5698 0.6 59.8767 1.30685L65.6674 15.3863ZM54.6918 11.811H60.2886L57.4539 4.14247L54.6918 11.811Z" fill="#1A093F"/>
</svg>
